<svg width="1365" height="1117" viewBox="0 0 1365 1117" fill="none" xmlns="http://www.w3.org/2000/svg">
<g opacity="0.3">
<path d="M107.682 -1300.37V2365.95" stroke="#2337CC" stroke-width="1.02554"/>
<path d="M184.598 -1300.37V2365.95" stroke="#2337CC" stroke-width="1.02554"/>
<path d="M260.488 -1300.37V2365.95" stroke="#2337CC" stroke-width="1.02554"/>
<path d="M338.43 -1300.37V2365.95" stroke="#2337CC" stroke-width="1.02554"/>
<path d="M414.32 -1300.37V2365.95" stroke="#2337CC" stroke-width="1.02554"/>
<path d="M491.236 -1300.37V2365.95" stroke="#2337CC" stroke-width="1.02554"/>
<path d="M567.126 -1300.37V2365.95" stroke="#2337CC" stroke-width="1.02554"/>
<path d="M644.042 -1300.37V2365.95" stroke="#2337CC" stroke-width="1.02554"/>
<path d="M719.932 -1300.37V2365.95" stroke="#2337CC" stroke-width="1.02554"/>
<path d="M796.848 -1300.37V2365.95" stroke="#2337CC" stroke-width="1.02554"/>
<path d="M872.738 -1300.37V2365.95" stroke="#2337CC" stroke-width="1.02554"/>
<path d="M949.654 -1300.37V2365.95" stroke="#2337CC" stroke-width="1.02554"/>
<path d="M1025.54 -1300.37V2365.95" stroke="#2337CC" stroke-width="1.02554"/>
<path d="M1103.49 -1300.37V2365.95" stroke="#2337CC" stroke-width="1.02554"/>
<path d="M1179.38 -1300.37V2365.95" stroke="#2337CC" stroke-width="1.02554"/>
<path d="M1256.29 -1300.37V2365.95" stroke="#2337CC" stroke-width="1.02554"/>
</g>
<g opacity="0.3">
<path d="M1365 1057.36L0.000195265 1057.36" stroke="#2337CC" stroke-width="1.02554"/>
</g>
<g opacity="0.3">
<path d="M1365 56.4265L0.000195265 56.4265" stroke="#2337CC" stroke-width="1.02554"/>
<path d="M1365 132.317L0.000195265 132.317" stroke="#2337CC" stroke-width="1.02554"/>
<path d="M1365 209.233L0.000195265 209.233" stroke="#2337CC" stroke-width="1.02554"/>
<path d="M1365 285.123L0.000195265 285.123" stroke="#2337CC" stroke-width="1.02554"/>
<path d="M1365 362.039L0.000195265 362.039" stroke="#2337CC" stroke-width="1.02554"/>
<path d="M1365 437.929L0.000195265 437.929" stroke="#2337CC" stroke-width="1.02554"/>
<path d="M1365 514.845L0.000195265 514.845" stroke="#2337CC" stroke-width="1.02554"/>
<path d="M1365 590.735L0.000195265 590.735" stroke="#2337CC" stroke-width="1.02554"/>
<path d="M1365 667.651L0.000195265 667.651" stroke="#2337CC" stroke-width="1.02554"/>
<path d="M1365 743.541L0.000195265 743.541" stroke="#2337CC" stroke-width="1.02554"/>
<path d="M1365 821.483L0.000195265 821.483" stroke="#2337CC" stroke-width="1.02554"/>
<path d="M1365 897.373L0.000195265 897.373" stroke="#2337CC" stroke-width="1.02554"/>
<path d="M1365 974.289L0.000195265 974.289" stroke="#2337CC" stroke-width="1.02554"/>
</g>
</svg>
